<mxfile host="Electron" agent="Mozilla/5.0 (Windows NT 10.0; Win64; x64) AppleWebKit/537.36 (KHTML, like Gecko) draw.io/24.7.8 Chrome/128.0.6613.36 Electron/32.0.1 Safari/537.36" version="24.7.8">
  <diagram name="Page-1" id="EF4YrGt0gxMVskBdaSfW">
    <mxGraphModel dx="875" dy="524" grid="1" gridSize="10" guides="1" tooltips="1" connect="1" arrows="1" fold="1" page="1" pageScale="1" pageWidth="827" pageHeight="1169" math="1" shadow="0">
      <root>
        <mxCell id="0" />
        <mxCell id="1" parent="0" />
        <mxCell id="O9iiYRhufzulxAbbuQm4-144" value="" style="rounded=1;whiteSpace=wrap;html=1;arcSize=8;fillColor=#E6E6E6;strokeColor=#000000;" vertex="1" parent="1">
          <mxGeometry x="600" y="314.5" width="300" height="125.5" as="geometry" />
        </mxCell>
        <mxCell id="O9iiYRhufzulxAbbuQm4-58" value="" style="rounded=1;whiteSpace=wrap;html=1;arcSize=7;fillColor=#E6E6E6;strokeColor=#000000;" vertex="1" parent="1">
          <mxGeometry x="450" y="220" width="450" height="130" as="geometry" />
        </mxCell>
        <mxCell id="O9iiYRhufzulxAbbuQm4-19" value="" style="rounded=0;whiteSpace=wrap;html=1;fillColor=#DCFFD4;" vertex="1" parent="1">
          <mxGeometry x="118" y="230" width="50" height="40" as="geometry" />
        </mxCell>
        <mxCell id="O9iiYRhufzulxAbbuQm4-18" value="" style="rounded=0;whiteSpace=wrap;html=1;fillColor=#E4E0FF;" vertex="1" parent="1">
          <mxGeometry x="110" y="235" width="50" height="40" as="geometry" />
        </mxCell>
        <mxCell id="O9iiYRhufzulxAbbuQm4-17" value="" style="rounded=0;whiteSpace=wrap;html=1;fillColor=#FFE0E0;" vertex="1" parent="1">
          <mxGeometry x="102" y="240" width="50" height="40" as="geometry" />
        </mxCell>
        <mxCell id="O9iiYRhufzulxAbbuQm4-20" value="&lt;font style=&quot;font-size: 12px;&quot;&gt;RGB&lt;/font&gt;" style="text;html=1;align=center;verticalAlign=middle;whiteSpace=wrap;rounded=0;fontFamily=Garamond;fontSize=12;" vertex="1" parent="1">
          <mxGeometry x="105" y="200" width="60" height="30" as="geometry" />
        </mxCell>
        <mxCell id="O9iiYRhufzulxAbbuQm4-21" value="" style="endArrow=classic;html=1;rounded=0;" edge="1" parent="1">
          <mxGeometry width="50" height="50" relative="1" as="geometry">
            <mxPoint x="180" y="254.72" as="sourcePoint" />
            <mxPoint x="240" y="254.72" as="targetPoint" />
          </mxGeometry>
        </mxCell>
        <mxCell id="O9iiYRhufzulxAbbuQm4-22" value="" style="rounded=0;whiteSpace=wrap;html=1;fillColor=#ffd6d6;" vertex="1" parent="1">
          <mxGeometry x="266" y="230" width="50" height="40" as="geometry" />
        </mxCell>
        <mxCell id="O9iiYRhufzulxAbbuQm4-23" value="" style="rounded=0;whiteSpace=wrap;html=1;fillColor=#eceafb;" vertex="1" parent="1">
          <mxGeometry x="258" y="235" width="50" height="40" as="geometry" />
        </mxCell>
        <mxCell id="O9iiYRhufzulxAbbuQm4-24" value="" style="rounded=0;whiteSpace=wrap;html=1;" vertex="1" parent="1">
          <mxGeometry x="335" y="265" width="50" height="40" as="geometry" />
        </mxCell>
        <mxCell id="O9iiYRhufzulxAbbuQm4-25" value="&lt;font style=&quot;font-size: 12px;&quot;&gt;YCbCr&lt;/font&gt;" style="text;html=1;align=center;verticalAlign=middle;whiteSpace=wrap;rounded=0;fontFamily=Garamond;fontSize=12;" vertex="1" parent="1">
          <mxGeometry x="253" y="200" width="60" height="30" as="geometry" />
        </mxCell>
        <mxCell id="O9iiYRhufzulxAbbuQm4-26" value="" style="endArrow=classic;html=1;rounded=0;" edge="1" parent="1">
          <mxGeometry width="50" height="50" relative="1" as="geometry">
            <mxPoint x="327" y="254.72000000000003" as="sourcePoint" />
            <mxPoint x="400" y="255" as="targetPoint" />
          </mxGeometry>
        </mxCell>
        <mxCell id="O9iiYRhufzulxAbbuQm4-27" value="Color Convert" style="text;html=1;align=center;verticalAlign=middle;whiteSpace=wrap;rounded=0;fontSize=10;" vertex="1" parent="1">
          <mxGeometry x="180" y="222" width="60" height="30" as="geometry" />
        </mxCell>
        <mxCell id="O9iiYRhufzulxAbbuQm4-28" value="Partition" style="text;html=1;align=center;verticalAlign=middle;whiteSpace=wrap;rounded=0;fontSize=10;" vertex="1" parent="1">
          <mxGeometry x="330" y="230" width="60" height="30" as="geometry" />
        </mxCell>
        <mxCell id="O9iiYRhufzulxAbbuQm4-30" value="" style="endArrow=none;html=1;rounded=0;exitX=0;exitY=0.25;exitDx=0;exitDy=0;entryX=1;entryY=0.25;entryDx=0;entryDy=0;" edge="1" parent="1" source="O9iiYRhufzulxAbbuQm4-24" target="O9iiYRhufzulxAbbuQm4-24">
          <mxGeometry width="50" height="50" relative="1" as="geometry">
            <mxPoint x="365" y="345" as="sourcePoint" />
            <mxPoint x="415" y="295" as="targetPoint" />
          </mxGeometry>
        </mxCell>
        <mxCell id="O9iiYRhufzulxAbbuQm4-31" value="" style="endArrow=none;html=1;rounded=0;exitX=0.183;exitY=0.013;exitDx=0;exitDy=0;entryX=0.186;entryY=1.013;entryDx=0;entryDy=0;exitPerimeter=0;entryPerimeter=0;" edge="1" parent="1">
          <mxGeometry width="50" height="50" relative="1" as="geometry">
            <mxPoint x="345.15" y="265.52" as="sourcePoint" />
            <mxPoint x="345.30000000000007" y="305.52" as="targetPoint" />
          </mxGeometry>
        </mxCell>
        <mxCell id="O9iiYRhufzulxAbbuQm4-32" value="" style="endArrow=none;html=1;rounded=0;exitX=0.183;exitY=0.013;exitDx=0;exitDy=0;entryX=0.186;entryY=1.013;entryDx=0;entryDy=0;exitPerimeter=0;entryPerimeter=0;" edge="1" parent="1">
          <mxGeometry width="50" height="50" relative="1" as="geometry">
            <mxPoint x="355.15" y="265" as="sourcePoint" />
            <mxPoint x="355.30000000000007" y="305" as="targetPoint" />
          </mxGeometry>
        </mxCell>
        <mxCell id="O9iiYRhufzulxAbbuQm4-33" value="" style="endArrow=none;html=1;rounded=0;exitX=0.183;exitY=0.013;exitDx=0;exitDy=0;entryX=0.186;entryY=1.013;entryDx=0;entryDy=0;exitPerimeter=0;entryPerimeter=0;" edge="1" parent="1">
          <mxGeometry width="50" height="50" relative="1" as="geometry">
            <mxPoint x="364.91999999999996" y="265" as="sourcePoint" />
            <mxPoint x="365.07000000000005" y="305" as="targetPoint" />
          </mxGeometry>
        </mxCell>
        <mxCell id="O9iiYRhufzulxAbbuQm4-34" value="" style="endArrow=none;html=1;rounded=0;exitX=0;exitY=0.25;exitDx=0;exitDy=0;entryX=1;entryY=0.25;entryDx=0;entryDy=0;" edge="1" parent="1">
          <mxGeometry width="50" height="50" relative="1" as="geometry">
            <mxPoint x="335" y="284.96" as="sourcePoint" />
            <mxPoint x="385" y="284.96" as="targetPoint" />
          </mxGeometry>
        </mxCell>
        <mxCell id="O9iiYRhufzulxAbbuQm4-38" value="..." style="text;html=1;align=center;verticalAlign=middle;whiteSpace=wrap;rounded=0;rotation=45;" vertex="1" parent="1">
          <mxGeometry x="367" y="285" width="20" height="15" as="geometry" />
        </mxCell>
        <mxCell id="O9iiYRhufzulxAbbuQm4-39" value="" style="rounded=0;whiteSpace=wrap;html=1;fillColor=#dbdbdb;" vertex="1" parent="1">
          <mxGeometry x="250" y="240" width="50" height="40" as="geometry" />
        </mxCell>
        <mxCell id="O9iiYRhufzulxAbbuQm4-40" value="" style="whiteSpace=wrap;html=1;aspect=fixed;" vertex="1" parent="1">
          <mxGeometry x="410" y="250" width="10" height="10" as="geometry" />
        </mxCell>
        <mxCell id="O9iiYRhufzulxAbbuQm4-41" value="$$\times n$$" style="text;html=1;align=center;verticalAlign=middle;whiteSpace=wrap;rounded=0;" vertex="1" parent="1">
          <mxGeometry x="405" y="262" width="20" height="15" as="geometry" />
        </mxCell>
        <mxCell id="O9iiYRhufzulxAbbuQm4-42" value="" style="endArrow=classic;html=1;rounded=0;" edge="1" parent="1">
          <mxGeometry width="50" height="50" relative="1" as="geometry">
            <mxPoint x="529" y="255.81000000000006" as="sourcePoint" />
            <mxPoint x="602" y="256.09000000000003" as="targetPoint" />
          </mxGeometry>
        </mxCell>
        <mxCell id="O9iiYRhufzulxAbbuQm4-45" value="2-D DCT" style="text;html=1;align=center;verticalAlign=middle;whiteSpace=wrap;rounded=0;fontSize=10;" vertex="1" parent="1">
          <mxGeometry x="533" y="232" width="60" height="30" as="geometry" />
        </mxCell>
        <mxCell id="O9iiYRhufzulxAbbuQm4-49" value="$$f(i,g)$$" style="text;html=1;align=center;verticalAlign=middle;whiteSpace=wrap;rounded=0;fontSize=15;" vertex="1" parent="1">
          <mxGeometry x="713.5" y="185" width="60" height="30" as="geometry" />
        </mxCell>
        <mxCell id="O9iiYRhufzulxAbbuQm4-50" value="$$F(u,v)$$" style="text;html=1;align=center;verticalAlign=middle;whiteSpace=wrap;rounded=0;" vertex="1" parent="1">
          <mxGeometry x="600" y="241" width="60" height="30" as="geometry" />
        </mxCell>
        <mxCell id="O9iiYRhufzulxAbbuQm4-51" value="" style="endArrow=classic;html=1;rounded=0;" edge="1" parent="1">
          <mxGeometry width="50" height="50" relative="1" as="geometry">
            <mxPoint x="658" y="256.67" as="sourcePoint" />
            <mxPoint x="748" y="257" as="targetPoint" />
          </mxGeometry>
        </mxCell>
        <mxCell id="O9iiYRhufzulxAbbuQm4-52" value="Quantization" style="text;html=1;align=center;verticalAlign=middle;whiteSpace=wrap;rounded=0;fontSize=10;" vertex="1" parent="1">
          <mxGeometry x="664" y="232" width="77" height="30" as="geometry" />
        </mxCell>
        <mxCell id="O9iiYRhufzulxAbbuQm4-54" value="For every 8x8 block" style="text;html=1;align=center;verticalAlign=middle;whiteSpace=wrap;rounded=0;fontSize=16;" vertex="1" parent="1">
          <mxGeometry x="565.5" y="185" width="160" height="30" as="geometry" />
        </mxCell>
        <mxCell id="O9iiYRhufzulxAbbuQm4-55" value="$$8\times 8$$" style="text;html=1;align=center;verticalAlign=middle;whiteSpace=wrap;rounded=0;" vertex="1" parent="1">
          <mxGeometry x="400" y="230" width="30" height="14" as="geometry" />
        </mxCell>
        <mxCell id="O9iiYRhufzulxAbbuQm4-57" value="$$f(i,g)$$" style="text;html=1;align=center;verticalAlign=middle;whiteSpace=wrap;rounded=0;" vertex="1" parent="1">
          <mxGeometry x="473" y="239" width="60" height="30" as="geometry" />
        </mxCell>
        <mxCell id="O9iiYRhufzulxAbbuQm4-59" value="" style="endArrow=classic;html=1;rounded=0;" edge="1" parent="1">
          <mxGeometry width="50" height="50" relative="1" as="geometry">
            <mxPoint x="434" y="254.72000000000003" as="sourcePoint" />
            <mxPoint x="480" y="255" as="targetPoint" />
          </mxGeometry>
        </mxCell>
        <mxCell id="O9iiYRhufzulxAbbuQm4-63" value="$$round(\frac{F(u, v)}{Q(u, v)})$$" style="text;html=1;align=center;verticalAlign=middle;whiteSpace=wrap;rounded=0;fontSize=8;" vertex="1" parent="1">
          <mxGeometry x="672.5" y="260" width="60" height="30" as="geometry" />
        </mxCell>
        <mxCell id="O9iiYRhufzulxAbbuQm4-65" value="$${\hat{F}(u,v)}$$" style="text;html=1;align=center;verticalAlign=middle;whiteSpace=wrap;rounded=0;" vertex="1" parent="1">
          <mxGeometry x="748" y="241" width="60" height="30" as="geometry" />
        </mxCell>
        <mxCell id="O9iiYRhufzulxAbbuQm4-81" value="..." style="text;html=1;align=center;verticalAlign=middle;whiteSpace=wrap;rounded=0;rotation=90;" vertex="1" parent="1">
          <mxGeometry x="345" y="288" width="20" height="15" as="geometry" />
        </mxCell>
        <mxCell id="O9iiYRhufzulxAbbuQm4-82" value="..." style="text;html=1;align=center;verticalAlign=middle;whiteSpace=wrap;rounded=0;rotation=0;" vertex="1" parent="1">
          <mxGeometry x="365" y="269" width="20" height="15" as="geometry" />
        </mxCell>
        <mxCell id="O9iiYRhufzulxAbbuQm4-86" value="..." style="text;html=1;align=center;verticalAlign=middle;whiteSpace=wrap;rounded=0;rotation=0;" vertex="1" parent="1">
          <mxGeometry x="634" y="277.5" width="20" height="15" as="geometry" />
        </mxCell>
        <mxCell id="O9iiYRhufzulxAbbuQm4-87" value="..." style="text;html=1;align=center;verticalAlign=middle;whiteSpace=wrap;rounded=0;rotation=90;" vertex="1" parent="1">
          <mxGeometry x="614" y="303" width="20" height="15" as="geometry" />
        </mxCell>
        <mxCell id="O9iiYRhufzulxAbbuQm4-88" value="..." style="text;html=1;align=center;verticalAlign=middle;whiteSpace=wrap;rounded=0;rotation=45;" vertex="1" parent="1">
          <mxGeometry x="636" y="299" width="20" height="15" as="geometry" />
        </mxCell>
        <mxCell id="O9iiYRhufzulxAbbuQm4-90" value="102" style="whiteSpace=wrap;html=1;aspect=fixed;fontSize=5;fillColor=#CCFFCC;" vertex="1" parent="1">
          <mxGeometry x="604" y="270" width="10" height="10" as="geometry" />
        </mxCell>
        <mxCell id="O9iiYRhufzulxAbbuQm4-99" value="98" style="whiteSpace=wrap;html=1;aspect=fixed;fontSize=5;fillColor=#FFCCCC;" vertex="1" parent="1">
          <mxGeometry x="614" y="270" width="10" height="10" as="geometry" />
        </mxCell>
        <mxCell id="O9iiYRhufzulxAbbuQm4-101" value="89" style="whiteSpace=wrap;html=1;aspect=fixed;fontSize=5;fillColor=#FFCCCC;" vertex="1" parent="1">
          <mxGeometry x="604" y="280" width="10" height="10" as="geometry" />
        </mxCell>
        <mxCell id="O9iiYRhufzulxAbbuQm4-102" value="65" style="whiteSpace=wrap;html=1;aspect=fixed;fontSize=5;fillColor=#FFCCCC;" vertex="1" parent="1">
          <mxGeometry x="604" y="290" width="10" height="10" as="geometry" />
        </mxCell>
        <mxCell id="O9iiYRhufzulxAbbuQm4-103" value="57" style="whiteSpace=wrap;html=1;aspect=fixed;fontSize=5;fillColor=#FFCCCC;" vertex="1" parent="1">
          <mxGeometry x="614" y="280" width="10" height="10" as="geometry" />
        </mxCell>
        <mxCell id="O9iiYRhufzulxAbbuQm4-104" value="50" style="whiteSpace=wrap;html=1;aspect=fixed;fontSize=5;fillColor=#FFCCCC;" vertex="1" parent="1">
          <mxGeometry x="624" y="270" width="10" height="10" as="geometry" />
        </mxCell>
        <mxCell id="O9iiYRhufzulxAbbuQm4-105" value="34" style="whiteSpace=wrap;html=1;aspect=fixed;fontSize=5;fillColor=#FFCCCC;" vertex="1" parent="1">
          <mxGeometry x="614" y="290" width="10" height="10" as="geometry" />
        </mxCell>
        <mxCell id="O9iiYRhufzulxAbbuQm4-106" value="41" style="whiteSpace=wrap;html=1;aspect=fixed;fontSize=5;fillColor=#FFCCCC;" vertex="1" parent="1">
          <mxGeometry x="624" y="280" width="10" height="10" as="geometry" />
        </mxCell>
        <mxCell id="O9iiYRhufzulxAbbuQm4-107" value="14" style="whiteSpace=wrap;html=1;aspect=fixed;fontSize=5;fillColor=#FFCCCC;" vertex="1" parent="1">
          <mxGeometry x="624" y="290" width="10" height="10" as="geometry" />
        </mxCell>
        <mxCell id="O9iiYRhufzulxAbbuQm4-108" value="" style="whiteSpace=wrap;html=1;aspect=fixed;" vertex="1" parent="1">
          <mxGeometry x="477" y="270" width="50" height="50" as="geometry" />
        </mxCell>
        <mxCell id="O9iiYRhufzulxAbbuQm4-109" value="..." style="text;html=1;align=center;verticalAlign=middle;whiteSpace=wrap;rounded=0;rotation=0;" vertex="1" parent="1">
          <mxGeometry x="507" y="277.5" width="20" height="15" as="geometry" />
        </mxCell>
        <mxCell id="O9iiYRhufzulxAbbuQm4-110" value="..." style="text;html=1;align=center;verticalAlign=middle;whiteSpace=wrap;rounded=0;rotation=90;" vertex="1" parent="1">
          <mxGeometry x="487" y="303" width="20" height="15" as="geometry" />
        </mxCell>
        <mxCell id="O9iiYRhufzulxAbbuQm4-111" value="..." style="text;html=1;align=center;verticalAlign=middle;whiteSpace=wrap;rounded=0;rotation=45;" vertex="1" parent="1">
          <mxGeometry x="509" y="299" width="20" height="15" as="geometry" />
        </mxCell>
        <mxCell id="O9iiYRhufzulxAbbuQm4-112" value="43" style="whiteSpace=wrap;html=1;aspect=fixed;fontSize=5;" vertex="1" parent="1">
          <mxGeometry x="477" y="270" width="10" height="10" as="geometry" />
        </mxCell>
        <mxCell id="O9iiYRhufzulxAbbuQm4-113" value="44" style="whiteSpace=wrap;html=1;aspect=fixed;fontSize=5;" vertex="1" parent="1">
          <mxGeometry x="487" y="270" width="10" height="10" as="geometry" />
        </mxCell>
        <mxCell id="O9iiYRhufzulxAbbuQm4-114" value="44" style="whiteSpace=wrap;html=1;aspect=fixed;fontSize=5;" vertex="1" parent="1">
          <mxGeometry x="477" y="280" width="10" height="10" as="geometry" />
        </mxCell>
        <mxCell id="O9iiYRhufzulxAbbuQm4-115" value="43" style="whiteSpace=wrap;html=1;aspect=fixed;fontSize=5;" vertex="1" parent="1">
          <mxGeometry x="477" y="290" width="10" height="10" as="geometry" />
        </mxCell>
        <mxCell id="O9iiYRhufzulxAbbuQm4-116" value="46" style="whiteSpace=wrap;html=1;aspect=fixed;fontSize=5;" vertex="1" parent="1">
          <mxGeometry x="487" y="280" width="10" height="10" as="geometry" />
        </mxCell>
        <mxCell id="O9iiYRhufzulxAbbuQm4-117" value="44" style="whiteSpace=wrap;html=1;aspect=fixed;fontSize=5;" vertex="1" parent="1">
          <mxGeometry x="497" y="270" width="10" height="10" as="geometry" />
        </mxCell>
        <mxCell id="O9iiYRhufzulxAbbuQm4-118" value="47" style="whiteSpace=wrap;html=1;aspect=fixed;fontSize=5;" vertex="1" parent="1">
          <mxGeometry x="487" y="290" width="10" height="10" as="geometry" />
        </mxCell>
        <mxCell id="O9iiYRhufzulxAbbuQm4-119" value="48" style="whiteSpace=wrap;html=1;aspect=fixed;fontSize=5;" vertex="1" parent="1">
          <mxGeometry x="497" y="280" width="10" height="10" as="geometry" />
        </mxCell>
        <mxCell id="O9iiYRhufzulxAbbuQm4-120" value="48" style="whiteSpace=wrap;html=1;aspect=fixed;fontSize=5;" vertex="1" parent="1">
          <mxGeometry x="497" y="290" width="10" height="10" as="geometry" />
        </mxCell>
        <mxCell id="O9iiYRhufzulxAbbuQm4-122" value="..." style="text;html=1;align=center;verticalAlign=middle;whiteSpace=wrap;rounded=0;rotation=0;" vertex="1" parent="1">
          <mxGeometry x="782" y="278" width="20" height="15" as="geometry" />
        </mxCell>
        <mxCell id="O9iiYRhufzulxAbbuQm4-123" value="..." style="text;html=1;align=center;verticalAlign=middle;whiteSpace=wrap;rounded=0;rotation=90;" vertex="1" parent="1">
          <mxGeometry x="762" y="303.5" width="20" height="15" as="geometry" />
        </mxCell>
        <mxCell id="O9iiYRhufzulxAbbuQm4-124" value="..." style="text;html=1;align=center;verticalAlign=middle;whiteSpace=wrap;rounded=0;rotation=45;" vertex="1" parent="1">
          <mxGeometry x="784" y="299.5" width="20" height="15" as="geometry" />
        </mxCell>
        <mxCell id="O9iiYRhufzulxAbbuQm4-125" value="10" style="whiteSpace=wrap;html=1;aspect=fixed;fontSize=5;fillColor=#CCFFCC;" vertex="1" parent="1">
          <mxGeometry x="752" y="270.5" width="10" height="10" as="geometry" />
        </mxCell>
        <mxCell id="O9iiYRhufzulxAbbuQm4-126" value="6" style="whiteSpace=wrap;html=1;aspect=fixed;fontSize=5;fillColor=#FFCCCC;" vertex="1" parent="1">
          <mxGeometry x="762" y="270.5" width="10" height="10" as="geometry" />
        </mxCell>
        <mxCell id="O9iiYRhufzulxAbbuQm4-127" value="6" style="whiteSpace=wrap;html=1;aspect=fixed;fontSize=5;fillColor=#FFCCCC;" vertex="1" parent="1">
          <mxGeometry x="752" y="280.5" width="10" height="10" as="geometry" />
        </mxCell>
        <mxCell id="O9iiYRhufzulxAbbuQm4-128" value="3" style="whiteSpace=wrap;html=1;aspect=fixed;fontSize=5;fillColor=#FFCCCC;" vertex="1" parent="1">
          <mxGeometry x="752" y="290.5" width="10" height="10" as="geometry" />
        </mxCell>
        <mxCell id="O9iiYRhufzulxAbbuQm4-129" value="2" style="whiteSpace=wrap;html=1;aspect=fixed;fontSize=5;fillColor=#FFCCCC;" vertex="1" parent="1">
          <mxGeometry x="762" y="280.5" width="10" height="10" as="geometry" />
        </mxCell>
        <mxCell id="O9iiYRhufzulxAbbuQm4-130" value="2" style="whiteSpace=wrap;html=1;aspect=fixed;fontSize=5;fillColor=#FFCCCC;" vertex="1" parent="1">
          <mxGeometry x="772" y="270.5" width="10" height="10" as="geometry" />
        </mxCell>
        <mxCell id="O9iiYRhufzulxAbbuQm4-131" value="1" style="whiteSpace=wrap;html=1;aspect=fixed;fontSize=5;fillColor=#FFCCCC;" vertex="1" parent="1">
          <mxGeometry x="762" y="290.5" width="10" height="10" as="geometry" />
        </mxCell>
        <mxCell id="O9iiYRhufzulxAbbuQm4-132" value="1" style="whiteSpace=wrap;html=1;aspect=fixed;fontSize=5;fillColor=#FFCCCC;" vertex="1" parent="1">
          <mxGeometry x="772" y="280.5" width="10" height="10" as="geometry" />
        </mxCell>
        <mxCell id="O9iiYRhufzulxAbbuQm4-133" value="0" style="whiteSpace=wrap;html=1;aspect=fixed;fontSize=5;fillColor=#FFCCCC;" vertex="1" parent="1">
          <mxGeometry x="772" y="290.5" width="10" height="10" as="geometry" />
        </mxCell>
        <mxCell id="O9iiYRhufzulxAbbuQm4-137" value="" style="shape=curlyBracket;whiteSpace=wrap;html=1;rounded=1;flipH=1;labelPosition=right;verticalLabelPosition=middle;align=left;verticalAlign=middle;strokeWidth=1.5;" vertex="1" parent="1">
          <mxGeometry x="545.5" y="369" width="20" height="98" as="geometry" />
        </mxCell>
        <mxCell id="O9iiYRhufzulxAbbuQm4-140" value="DC" style="rounded=0;whiteSpace=wrap;html=1;fillColor=#CCFFCC;fontSize=8;" vertex="1" parent="1">
          <mxGeometry x="509.5" y="375" width="36" height="20" as="geometry" />
        </mxCell>
        <mxCell id="O9iiYRhufzulxAbbuQm4-141" value="AC" style="rounded=0;whiteSpace=wrap;html=1;fillColor=#FFCCCC;fontSize=8;" vertex="1" parent="1">
          <mxGeometry x="509.5" y="440" width="36" height="20" as="geometry" />
        </mxCell>
        <mxCell id="O9iiYRhufzulxAbbuQm4-142" value="Differential Encoding" style="text;whiteSpace=wrap;fontSize=10;" vertex="1" parent="1">
          <mxGeometry x="378" y="359.77" width="112" height="20" as="geometry" />
        </mxCell>
        <mxCell id="O9iiYRhufzulxAbbuQm4-143" value="" style="endArrow=classic;html=1;rounded=0;endFill=1;" edge="1" parent="1">
          <mxGeometry width="50" height="50" relative="1" as="geometry">
            <mxPoint x="497" y="384.77" as="sourcePoint" />
            <mxPoint x="348" y="384.77" as="targetPoint" />
          </mxGeometry>
        </mxCell>
        <mxCell id="O9iiYRhufzulxAbbuQm4-145" value="" style="rounded=1;whiteSpace=wrap;html=1;arcSize=14;strokeColor=#E6E6E6;fillColor=#E6E6E6;" vertex="1" parent="1">
          <mxGeometry x="601" y="335" width="298" height="35" as="geometry" />
        </mxCell>
        <mxCell id="O9iiYRhufzulxAbbuQm4-71" value="" style="curved=1;endArrow=classic;html=1;rounded=0;" edge="1" parent="1">
          <mxGeometry width="50" height="50" relative="1" as="geometry">
            <mxPoint x="808" y="258" as="sourcePoint" />
            <mxPoint x="808" y="418" as="targetPoint" />
            <Array as="points">
              <mxPoint x="888" y="258" />
              <mxPoint x="888" y="418" />
            </Array>
          </mxGeometry>
        </mxCell>
        <mxCell id="O9iiYRhufzulxAbbuQm4-147" value="Zig-zag Vectoring" style="text;html=1;align=center;verticalAlign=middle;whiteSpace=wrap;rounded=0;fontSize=10;" vertex="1" parent="1">
          <mxGeometry x="820" y="300.5" width="77" height="30" as="geometry" />
        </mxCell>
        <mxCell id="O9iiYRhufzulxAbbuQm4-165" value="10" style="whiteSpace=wrap;html=1;aspect=fixed;fontSize=5;fillColor=#CCFFCC;" vertex="1" parent="1">
          <mxGeometry x="789" y="413" width="10" height="10" as="geometry" />
        </mxCell>
        <mxCell id="O9iiYRhufzulxAbbuQm4-166" value="6" style="whiteSpace=wrap;html=1;aspect=fixed;fontSize=5;fillColor=#FFCCCC;" vertex="1" parent="1">
          <mxGeometry x="779" y="413" width="10" height="10" as="geometry" />
        </mxCell>
        <mxCell id="O9iiYRhufzulxAbbuQm4-167" value="6" style="whiteSpace=wrap;html=1;aspect=fixed;fontSize=5;fillColor=#FFCCCC;" vertex="1" parent="1">
          <mxGeometry x="769" y="413" width="10" height="10" as="geometry" />
        </mxCell>
        <mxCell id="O9iiYRhufzulxAbbuQm4-168" value="2" style="whiteSpace=wrap;html=1;aspect=fixed;fontSize=5;fillColor=#FFCCCC;" vertex="1" parent="1">
          <mxGeometry x="759" y="413" width="10" height="10" as="geometry" />
        </mxCell>
        <mxCell id="O9iiYRhufzulxAbbuQm4-169" value="2" style="whiteSpace=wrap;html=1;aspect=fixed;fontSize=5;fillColor=#FFCCCC;" vertex="1" parent="1">
          <mxGeometry x="749" y="413" width="10" height="10" as="geometry" />
        </mxCell>
        <mxCell id="O9iiYRhufzulxAbbuQm4-170" value="3" style="whiteSpace=wrap;html=1;aspect=fixed;fontSize=5;fillColor=#FFCCCC;" vertex="1" parent="1">
          <mxGeometry x="739" y="413" width="10" height="10" as="geometry" />
        </mxCell>
        <mxCell id="O9iiYRhufzulxAbbuQm4-172" value="2" style="whiteSpace=wrap;html=1;aspect=fixed;fontSize=5;fillColor=#FFCCCC;" vertex="1" parent="1">
          <mxGeometry x="729" y="413" width="10" height="10" as="geometry" />
        </mxCell>
        <mxCell id="O9iiYRhufzulxAbbuQm4-173" value="1" style="whiteSpace=wrap;html=1;aspect=fixed;fontSize=5;fillColor=#FFCCCC;" vertex="1" parent="1">
          <mxGeometry x="719" y="413" width="10" height="10" as="geometry" />
        </mxCell>
        <mxCell id="O9iiYRhufzulxAbbuQm4-176" value="1" style="whiteSpace=wrap;html=1;aspect=fixed;fontSize=5;fillColor=#FFCCCC;" vertex="1" parent="1">
          <mxGeometry x="709" y="413" width="10" height="10" as="geometry" />
        </mxCell>
        <mxCell id="O9iiYRhufzulxAbbuQm4-177" value="0" style="whiteSpace=wrap;html=1;aspect=fixed;fontSize=5;fillColor=#FFCCCC;" vertex="1" parent="1">
          <mxGeometry x="699" y="413" width="10" height="10" as="geometry" />
        </mxCell>
        <mxCell id="O9iiYRhufzulxAbbuQm4-178" value="1" style="whiteSpace=wrap;html=1;aspect=fixed;fontSize=5;fillColor=#FFCCCC;" vertex="1" parent="1">
          <mxGeometry x="689" y="413" width="10" height="10" as="geometry" />
        </mxCell>
        <mxCell id="O9iiYRhufzulxAbbuQm4-179" value="0" style="whiteSpace=wrap;html=1;aspect=fixed;fontSize=5;fillColor=#FFCCCC;" vertex="1" parent="1">
          <mxGeometry x="679" y="413" width="10" height="10" as="geometry" />
        </mxCell>
        <mxCell id="O9iiYRhufzulxAbbuQm4-180" value="0" style="whiteSpace=wrap;html=1;aspect=fixed;fontSize=5;fillColor=#FFCCCC;" vertex="1" parent="1">
          <mxGeometry x="669" y="413" width="10" height="10" as="geometry" />
        </mxCell>
        <mxCell id="O9iiYRhufzulxAbbuQm4-181" value="0" style="whiteSpace=wrap;html=1;aspect=fixed;fontSize=5;fillColor=#FFCCCC;" vertex="1" parent="1">
          <mxGeometry x="659" y="413" width="10" height="10" as="geometry" />
        </mxCell>
        <mxCell id="O9iiYRhufzulxAbbuQm4-182" value="0" style="whiteSpace=wrap;html=1;aspect=fixed;fontSize=5;fillColor=#FFCCCC;" vertex="1" parent="1">
          <mxGeometry x="649" y="413" width="10" height="10" as="geometry" />
        </mxCell>
        <mxCell id="O9iiYRhufzulxAbbuQm4-183" value="DC" style="text;html=1;align=center;verticalAlign=middle;whiteSpace=wrap;rounded=0;fontSize=8;" vertex="1" parent="1">
          <mxGeometry x="773.5" y="393" width="41" height="20" as="geometry" />
        </mxCell>
        <mxCell id="O9iiYRhufzulxAbbuQm4-184" value="Low Frequency" style="text;html=1;align=center;verticalAlign=middle;whiteSpace=wrap;rounded=0;fontSize=8;" vertex="1" parent="1">
          <mxGeometry x="723.5" y="388" width="41" height="20" as="geometry" />
        </mxCell>
        <mxCell id="O9iiYRhufzulxAbbuQm4-185" value="High Frequency" style="text;html=1;align=center;verticalAlign=middle;whiteSpace=wrap;rounded=0;fontSize=8;" vertex="1" parent="1">
          <mxGeometry x="648" y="388" width="41" height="20" as="geometry" />
        </mxCell>
        <mxCell id="O9iiYRhufzulxAbbuQm4-186" value="0" style="whiteSpace=wrap;html=1;aspect=fixed;fontSize=5;fillColor=#FFCCCC;" vertex="1" parent="1">
          <mxGeometry x="639" y="413" width="10" height="10" as="geometry" />
        </mxCell>
        <mxCell id="O9iiYRhufzulxAbbuQm4-187" value="..." style="text;html=1;align=center;verticalAlign=middle;whiteSpace=wrap;rounded=0;rotation=0;" vertex="1" parent="1">
          <mxGeometry x="620" y="406" width="20" height="15" as="geometry" />
        </mxCell>
        <mxCell id="O9iiYRhufzulxAbbuQm4-191" value="AC" style="text;html=1;align=center;verticalAlign=middle;whiteSpace=wrap;rounded=0;fontSize=8;" vertex="1" parent="1">
          <mxGeometry x="688" y="365.25" width="41" height="20" as="geometry" />
        </mxCell>
        <mxCell id="O9iiYRhufzulxAbbuQm4-193" value="" style="endArrow=none;dashed=1;html=1;rounded=0;" edge="1" parent="1">
          <mxGeometry width="50" height="50" relative="1" as="geometry">
            <mxPoint x="683" y="390" as="sourcePoint" />
            <mxPoint x="699" y="380" as="targetPoint" />
          </mxGeometry>
        </mxCell>
        <mxCell id="O9iiYRhufzulxAbbuQm4-196" value="" style="endArrow=none;dashed=1;html=1;rounded=0;" edge="1" parent="1">
          <mxGeometry width="50" height="50" relative="1" as="geometry">
            <mxPoint x="732.5" y="390" as="sourcePoint" />
            <mxPoint x="716.5" y="380" as="targetPoint" />
          </mxGeometry>
        </mxCell>
        <mxCell id="O9iiYRhufzulxAbbuQm4-219" value="" style="endArrow=classic;html=1;rounded=0;" edge="1" parent="1">
          <mxGeometry width="50" height="50" relative="1" as="geometry">
            <mxPoint x="620" y="417.76" as="sourcePoint" />
            <mxPoint x="572" y="417.76" as="targetPoint" />
          </mxGeometry>
        </mxCell>
        <mxCell id="O9iiYRhufzulxAbbuQm4-222" value="Run-Length Encoding" style="text;whiteSpace=wrap;fontSize=10;" vertex="1" parent="1">
          <mxGeometry x="375" y="427" width="112" height="20" as="geometry" />
        </mxCell>
        <mxCell id="O9iiYRhufzulxAbbuQm4-223" value="" style="endArrow=classic;html=1;rounded=0;endFill=1;" edge="1" parent="1">
          <mxGeometry width="50" height="50" relative="1" as="geometry">
            <mxPoint x="497" y="450" as="sourcePoint" />
            <mxPoint x="348" y="450" as="targetPoint" />
          </mxGeometry>
        </mxCell>
        <mxCell id="O9iiYRhufzulxAbbuQm4-224" value="10" style="whiteSpace=wrap;html=1;aspect=fixed;fontSize=5;fillColor=#CCFFCC;" vertex="1" parent="1">
          <mxGeometry x="472" y="392" width="10" height="10" as="geometry" />
        </mxCell>
        <mxCell id="O9iiYRhufzulxAbbuQm4-225" value="10" style="whiteSpace=wrap;html=1;aspect=fixed;fontSize=5;fillColor=#CCFFCC;" vertex="1" parent="1">
          <mxGeometry x="462" y="392" width="10" height="10" as="geometry" />
        </mxCell>
        <mxCell id="O9iiYRhufzulxAbbuQm4-226" value="9" style="whiteSpace=wrap;html=1;aspect=fixed;fontSize=5;fillColor=#CCFFCC;" vertex="1" parent="1">
          <mxGeometry x="452" y="392" width="10" height="10" as="geometry" />
        </mxCell>
        <mxCell id="O9iiYRhufzulxAbbuQm4-227" value="9" style="whiteSpace=wrap;html=1;aspect=fixed;fontSize=5;fillColor=#CCFFCC;" vertex="1" parent="1">
          <mxGeometry x="442" y="392" width="10" height="10" as="geometry" />
        </mxCell>
        <mxCell id="O9iiYRhufzulxAbbuQm4-228" value="11" style="whiteSpace=wrap;html=1;aspect=fixed;fontSize=5;fillColor=#CCFFCC;" vertex="1" parent="1">
          <mxGeometry x="432" y="392" width="10" height="10" as="geometry" />
        </mxCell>
        <mxCell id="O9iiYRhufzulxAbbuQm4-229" value="12" style="whiteSpace=wrap;html=1;aspect=fixed;fontSize=5;fillColor=#CCFFCC;" vertex="1" parent="1">
          <mxGeometry x="422" y="392" width="10" height="10" as="geometry" />
        </mxCell>
        <mxCell id="O9iiYRhufzulxAbbuQm4-230" value="11" style="whiteSpace=wrap;html=1;aspect=fixed;fontSize=5;fillColor=#CCFFCC;" vertex="1" parent="1">
          <mxGeometry x="412" y="392" width="10" height="10" as="geometry" />
        </mxCell>
        <mxCell id="O9iiYRhufzulxAbbuQm4-231" value="8" style="whiteSpace=wrap;html=1;aspect=fixed;fontSize=5;fillColor=#CCFFCC;" vertex="1" parent="1">
          <mxGeometry x="402" y="392" width="10" height="10" as="geometry" />
        </mxCell>
        <mxCell id="O9iiYRhufzulxAbbuQm4-232" value="9" style="whiteSpace=wrap;html=1;aspect=fixed;fontSize=5;fillColor=#CCFFCC;" vertex="1" parent="1">
          <mxGeometry x="392" y="392" width="10" height="10" as="geometry" />
        </mxCell>
        <mxCell id="O9iiYRhufzulxAbbuQm4-233" value="8" style="whiteSpace=wrap;html=1;aspect=fixed;fontSize=5;fillColor=#CCFFCC;" vertex="1" parent="1">
          <mxGeometry x="382" y="392" width="10" height="10" as="geometry" />
        </mxCell>
        <mxCell id="O9iiYRhufzulxAbbuQm4-234" value="..." style="text;html=1;align=center;verticalAlign=middle;whiteSpace=wrap;rounded=0;rotation=0;" vertex="1" parent="1">
          <mxGeometry x="361" y="385.25" width="20" height="15" as="geometry" />
        </mxCell>
        <mxCell id="O9iiYRhufzulxAbbuQm4-239" value="2" style="whiteSpace=wrap;html=1;aspect=fixed;fontSize=5;fillColor=#FFCCCC;" vertex="1" parent="1">
          <mxGeometry x="472" y="457" width="10" height="10" as="geometry" />
        </mxCell>
        <mxCell id="O9iiYRhufzulxAbbuQm4-240" value="0" style="whiteSpace=wrap;html=1;aspect=fixed;fontSize=5;fillColor=#FFCCCC;" vertex="1" parent="1">
          <mxGeometry x="462" y="457" width="10" height="10" as="geometry" />
        </mxCell>
        <mxCell id="O9iiYRhufzulxAbbuQm4-241" value="1" style="whiteSpace=wrap;html=1;aspect=fixed;fontSize=5;fillColor=#FFCCCC;" vertex="1" parent="1">
          <mxGeometry x="452" y="457" width="10" height="10" as="geometry" />
        </mxCell>
        <mxCell id="O9iiYRhufzulxAbbuQm4-242" value="1" style="whiteSpace=wrap;html=1;aspect=fixed;fontSize=5;fillColor=#FFCCCC;" vertex="1" parent="1">
          <mxGeometry x="442" y="457" width="10" height="10" as="geometry" />
        </mxCell>
        <mxCell id="O9iiYRhufzulxAbbuQm4-243" value="0" style="whiteSpace=wrap;html=1;aspect=fixed;fontSize=5;fillColor=#FFCCCC;" vertex="1" parent="1">
          <mxGeometry x="432" y="457" width="10" height="10" as="geometry" />
        </mxCell>
        <mxCell id="O9iiYRhufzulxAbbuQm4-244" value="1" style="whiteSpace=wrap;html=1;aspect=fixed;fontSize=5;fillColor=#FFCCCC;" vertex="1" parent="1">
          <mxGeometry x="422" y="457" width="10" height="10" as="geometry" />
        </mxCell>
        <mxCell id="O9iiYRhufzulxAbbuQm4-245" value="0" style="whiteSpace=wrap;html=1;aspect=fixed;fontSize=5;fillColor=#FFCCCC;" vertex="1" parent="1">
          <mxGeometry x="412" y="457" width="10" height="10" as="geometry" />
        </mxCell>
        <mxCell id="O9iiYRhufzulxAbbuQm4-246" value="0" style="whiteSpace=wrap;html=1;aspect=fixed;fontSize=5;fillColor=#FFCCCC;" vertex="1" parent="1">
          <mxGeometry x="402" y="457" width="10" height="10" as="geometry" />
        </mxCell>
        <mxCell id="O9iiYRhufzulxAbbuQm4-247" value="0" style="whiteSpace=wrap;html=1;aspect=fixed;fontSize=5;fillColor=#FFCCCC;" vertex="1" parent="1">
          <mxGeometry x="392" y="457" width="10" height="10" as="geometry" />
        </mxCell>
        <mxCell id="O9iiYRhufzulxAbbuQm4-248" value="1" style="whiteSpace=wrap;html=1;aspect=fixed;fontSize=5;fillColor=#FFCCCC;" vertex="1" parent="1">
          <mxGeometry x="382" y="457" width="10" height="10" as="geometry" />
        </mxCell>
        <mxCell id="O9iiYRhufzulxAbbuQm4-250" value="..." style="text;html=1;align=center;verticalAlign=middle;whiteSpace=wrap;rounded=0;rotation=0;" vertex="1" parent="1">
          <mxGeometry x="481" y="385.25" width="20" height="15" as="geometry" />
        </mxCell>
        <mxCell id="O9iiYRhufzulxAbbuQm4-252" value="(Adjacent Blocks)" style="text;whiteSpace=wrap;fontSize=6;" vertex="1" parent="1">
          <mxGeometry x="502" y="392" width="53" height="20" as="geometry" />
        </mxCell>
        <mxCell id="O9iiYRhufzulxAbbuQm4-253" value="..." style="text;html=1;align=center;verticalAlign=middle;whiteSpace=wrap;rounded=0;rotation=0;" vertex="1" parent="1">
          <mxGeometry x="481" y="450" width="20" height="15" as="geometry" />
        </mxCell>
        <mxCell id="O9iiYRhufzulxAbbuQm4-254" value="..." style="text;html=1;align=center;verticalAlign=middle;whiteSpace=wrap;rounded=0;rotation=0;" vertex="1" parent="1">
          <mxGeometry x="361" y="450" width="20" height="15" as="geometry" />
        </mxCell>
        <mxCell id="O9iiYRhufzulxAbbuQm4-256" value="&lt;span style=&quot;font-size: 5px;&quot;&gt;0&lt;/span&gt;" style="text;html=1;align=center;verticalAlign=middle;whiteSpace=wrap;rounded=0;fontColor=#828282;" vertex="1" parent="1">
          <mxGeometry x="466" y="399.25" width="12" height="11" as="geometry" />
        </mxCell>
        <mxCell id="O9iiYRhufzulxAbbuQm4-257" value="&lt;span style=&quot;font-size: 5px;&quot;&gt;-1&lt;/span&gt;" style="text;html=1;align=center;verticalAlign=middle;whiteSpace=wrap;rounded=0;fontColor=#828282;" vertex="1" parent="1">
          <mxGeometry x="456" y="399.25" width="12" height="11" as="geometry" />
        </mxCell>
        <mxCell id="O9iiYRhufzulxAbbuQm4-258" value="&lt;span style=&quot;font-size: 5px;&quot;&gt;0&lt;/span&gt;" style="text;html=1;align=center;verticalAlign=middle;whiteSpace=wrap;rounded=0;fontColor=#828282;" vertex="1" parent="1">
          <mxGeometry x="446" y="399.25" width="12" height="11" as="geometry" />
        </mxCell>
        <mxCell id="O9iiYRhufzulxAbbuQm4-259" value="&lt;span style=&quot;font-size: 5px;&quot;&gt;2&lt;/span&gt;" style="text;html=1;align=center;verticalAlign=middle;whiteSpace=wrap;rounded=0;fontColor=#828282;" vertex="1" parent="1">
          <mxGeometry x="436" y="399.25" width="12" height="11" as="geometry" />
        </mxCell>
        <mxCell id="O9iiYRhufzulxAbbuQm4-260" value="&lt;span style=&quot;font-size: 5px;&quot;&gt;1&lt;/span&gt;" style="text;html=1;align=center;verticalAlign=middle;whiteSpace=wrap;rounded=0;fontColor=#828282;" vertex="1" parent="1">
          <mxGeometry x="426" y="399.25" width="12" height="11" as="geometry" />
        </mxCell>
        <mxCell id="O9iiYRhufzulxAbbuQm4-261" value="&lt;span style=&quot;font-size: 5px;&quot;&gt;-1&lt;/span&gt;" style="text;html=1;align=center;verticalAlign=middle;whiteSpace=wrap;rounded=0;fontColor=#828282;" vertex="1" parent="1">
          <mxGeometry x="416" y="399.25" width="12" height="11" as="geometry" />
        </mxCell>
        <mxCell id="O9iiYRhufzulxAbbuQm4-262" value="&lt;span style=&quot;font-size: 5px;&quot;&gt;-3&lt;/span&gt;" style="text;html=1;align=center;verticalAlign=middle;whiteSpace=wrap;rounded=0;fontColor=#828282;" vertex="1" parent="1">
          <mxGeometry x="406" y="399.25" width="12" height="11" as="geometry" />
        </mxCell>
        <mxCell id="O9iiYRhufzulxAbbuQm4-263" value="&lt;span style=&quot;font-size: 5px;&quot;&gt;1&lt;/span&gt;" style="text;html=1;align=center;verticalAlign=middle;whiteSpace=wrap;rounded=0;fontColor=#828282;" vertex="1" parent="1">
          <mxGeometry x="396" y="399.25" width="12" height="11" as="geometry" />
        </mxCell>
        <mxCell id="O9iiYRhufzulxAbbuQm4-264" value="&lt;span style=&quot;font-size: 5px;&quot;&gt;-1&lt;/span&gt;" style="text;html=1;align=center;verticalAlign=middle;whiteSpace=wrap;rounded=0;fontColor=#828282;" vertex="1" parent="1">
          <mxGeometry x="386" y="399.25" width="12" height="11" as="geometry" />
        </mxCell>
        <mxCell id="O9iiYRhufzulxAbbuQm4-265" value="" style="endArrow=classic;html=1;rounded=0;strokeWidth=0.5;endSize=2;" edge="1" parent="1">
          <mxGeometry width="50" height="50" relative="1" as="geometry">
            <mxPoint x="426" y="416.89" as="sourcePoint" />
            <mxPoint x="396" y="416.89" as="targetPoint" />
          </mxGeometry>
        </mxCell>
        <mxCell id="O9iiYRhufzulxAbbuQm4-266" value="&lt;span style=&quot;font-size: 5px;&quot;&gt;(2,1)&lt;/span&gt;" style="text;html=1;align=center;verticalAlign=middle;whiteSpace=wrap;rounded=0;fontColor=#828282;" vertex="1" parent="1">
          <mxGeometry x="468" y="465" width="20" height="11" as="geometry" />
        </mxCell>
        <mxCell id="O9iiYRhufzulxAbbuQm4-275" value="" style="endArrow=classic;html=1;rounded=0;strokeWidth=0.5;endSize=2;" edge="1" parent="1">
          <mxGeometry width="50" height="50" relative="1" as="geometry">
            <mxPoint x="426" y="482.89" as="sourcePoint" />
            <mxPoint x="396" y="482.89" as="targetPoint" />
          </mxGeometry>
        </mxCell>
        <mxCell id="O9iiYRhufzulxAbbuQm4-276" value="&lt;span style=&quot;font-size: 5px;&quot;&gt;(1,0)&lt;/span&gt;" style="text;html=1;align=center;verticalAlign=middle;whiteSpace=wrap;rounded=0;fontColor=#828282;" vertex="1" parent="1">
          <mxGeometry x="447" y="465" width="20" height="11" as="geometry" />
        </mxCell>
        <mxCell id="O9iiYRhufzulxAbbuQm4-277" value="&lt;span style=&quot;font-size: 5px;&quot;&gt;(1,1)&lt;/span&gt;" style="text;html=1;align=center;verticalAlign=middle;whiteSpace=wrap;rounded=0;fontColor=#828282;" vertex="1" parent="1">
          <mxGeometry x="437" y="465" width="20" height="11" as="geometry" />
        </mxCell>
        <mxCell id="O9iiYRhufzulxAbbuQm4-278" value="&lt;span style=&quot;font-size: 5px;&quot;&gt;(1,3)&lt;/span&gt;" style="text;html=1;align=center;verticalAlign=middle;whiteSpace=wrap;rounded=0;fontColor=#828282;" vertex="1" parent="1">
          <mxGeometry x="417" y="465" width="20" height="11" as="geometry" />
        </mxCell>
        <mxCell id="O9iiYRhufzulxAbbuQm4-279" value="&lt;span style=&quot;font-size: 5px;&quot;&gt;(1,...)&lt;/span&gt;" style="text;html=1;align=center;verticalAlign=middle;whiteSpace=wrap;rounded=0;fontColor=#828282;" vertex="1" parent="1">
          <mxGeometry x="377" y="465" width="20" height="11" as="geometry" />
        </mxCell>
        <mxCell id="O9iiYRhufzulxAbbuQm4-280" value="(Counting Zeros)" style="text;whiteSpace=wrap;fontSize=6;" vertex="1" parent="1">
          <mxGeometry x="428" y="472" width="53" height="20" as="geometry" />
        </mxCell>
        <mxCell id="O9iiYRhufzulxAbbuQm4-283" value="(Recoding Difference)" style="text;whiteSpace=wrap;fontSize=6;" vertex="1" parent="1">
          <mxGeometry x="428" y="406" width="62.5" height="20" as="geometry" />
        </mxCell>
        <mxCell id="O9iiYRhufzulxAbbuQm4-289" value="&lt;font style=&quot;font-size: 9px;&quot;&gt;Entropy Encoding&lt;/font&gt;&lt;div style=&quot;font-size: 9px;&quot;&gt;&lt;font style=&quot;font-size: 9px;&quot;&gt;(Huffman)&lt;/font&gt;&lt;/div&gt;" style="rounded=0;whiteSpace=wrap;html=1;fontSize=9;" vertex="1" parent="1">
          <mxGeometry x="280" y="362.5" width="65" height="107" as="geometry" />
        </mxCell>
        <mxCell id="O9iiYRhufzulxAbbuQm4-291" value="" style="endArrow=classic;html=1;rounded=0;" edge="1" parent="1">
          <mxGeometry width="50" height="50" relative="1" as="geometry">
            <mxPoint x="271" y="416.03" as="sourcePoint" />
            <mxPoint x="172" y="415.79999999999995" as="targetPoint" />
          </mxGeometry>
        </mxCell>
        <mxCell id="O9iiYRhufzulxAbbuQm4-292" value="Original Image" style="rounded=1;whiteSpace=wrap;html=1;fontFamily=Comic Sans MS;fontSize=9;fillColor=#dae8fc;strokeColor=#6c8ebf;" vertex="1" parent="1">
          <mxGeometry x="107" y="292.5" width="58" height="41" as="geometry" />
        </mxCell>
        <mxCell id="O9iiYRhufzulxAbbuQm4-293" value="&lt;font style=&quot;font-size: 9px;&quot;&gt;Compressed Image&lt;/font&gt;" style="rounded=1;whiteSpace=wrap;html=1;fontFamily=Comic Sans MS;fontSize=10;spacingLeft=5;spacingRight=5;fillColor=#dae8fc;strokeColor=#6c8ebf;" vertex="1" parent="1">
          <mxGeometry x="107" y="395" width="58" height="41" as="geometry" />
        </mxCell>
        <mxCell id="O9iiYRhufzulxAbbuQm4-294" value="" style="endArrow=classic;html=1;rounded=0;" edge="1" parent="1">
          <mxGeometry width="50" height="50" relative="1" as="geometry">
            <mxPoint x="136" y="390" as="sourcePoint" />
            <mxPoint x="135.83" y="339.77" as="targetPoint" />
          </mxGeometry>
        </mxCell>
        <mxCell id="O9iiYRhufzulxAbbuQm4-295" value="JPEG Decoder" style="text;html=1;align=center;verticalAlign=middle;whiteSpace=wrap;rounded=0;fontSize=10;" vertex="1" parent="1">
          <mxGeometry x="80" y="350" width="60" height="30" as="geometry" />
        </mxCell>
        <mxCell id="O9iiYRhufzulxAbbuQm4-299" value="..." style="text;html=1;align=center;verticalAlign=middle;whiteSpace=wrap;rounded=0;rotation=0;" vertex="1" parent="1">
          <mxGeometry x="708" y="300.5" width="20" height="15" as="geometry" />
        </mxCell>
        <mxCell id="O9iiYRhufzulxAbbuQm4-300" value="..." style="text;html=1;align=center;verticalAlign=middle;whiteSpace=wrap;rounded=0;rotation=90;" vertex="1" parent="1">
          <mxGeometry x="688" y="326" width="20" height="15" as="geometry" />
        </mxCell>
        <mxCell id="O9iiYRhufzulxAbbuQm4-301" value="..." style="text;html=1;align=center;verticalAlign=middle;whiteSpace=wrap;rounded=0;rotation=45;" vertex="1" parent="1">
          <mxGeometry x="710" y="322" width="20" height="15" as="geometry" />
        </mxCell>
        <mxCell id="O9iiYRhufzulxAbbuQm4-302" value="10" style="whiteSpace=wrap;html=1;aspect=fixed;fontSize=5;fillColor=#FFFFFF;" vertex="1" parent="1">
          <mxGeometry x="678" y="293" width="10" height="10" as="geometry" />
        </mxCell>
        <mxCell id="O9iiYRhufzulxAbbuQm4-303" value="15" style="whiteSpace=wrap;html=1;aspect=fixed;fontSize=5;fillColor=#FFFFFF;" vertex="1" parent="1">
          <mxGeometry x="688" y="293" width="10" height="10" as="geometry" />
        </mxCell>
        <mxCell id="O9iiYRhufzulxAbbuQm4-304" value="15" style="whiteSpace=wrap;html=1;aspect=fixed;fontSize=5;fillColor=#FFFFFF;" vertex="1" parent="1">
          <mxGeometry x="678" y="303" width="10" height="10" as="geometry" />
        </mxCell>
        <mxCell id="O9iiYRhufzulxAbbuQm4-305" value="20" style="whiteSpace=wrap;html=1;aspect=fixed;fontSize=5;fillColor=#FFFFFF;" vertex="1" parent="1">
          <mxGeometry x="678" y="313" width="10" height="10" as="geometry" />
        </mxCell>
        <mxCell id="O9iiYRhufzulxAbbuQm4-306" value="20" style="whiteSpace=wrap;html=1;aspect=fixed;fontSize=5;fillColor=#FFFFFF;" vertex="1" parent="1">
          <mxGeometry x="688" y="303" width="10" height="10" as="geometry" />
        </mxCell>
        <mxCell id="O9iiYRhufzulxAbbuQm4-307" value="20" style="whiteSpace=wrap;html=1;aspect=fixed;fontSize=5;fillColor=#FFFFFF;" vertex="1" parent="1">
          <mxGeometry x="698" y="293" width="10" height="10" as="geometry" />
        </mxCell>
        <mxCell id="O9iiYRhufzulxAbbuQm4-308" value="30" style="whiteSpace=wrap;html=1;aspect=fixed;fontSize=5;fillColor=#FFFFFF;" vertex="1" parent="1">
          <mxGeometry x="688" y="313" width="10" height="10" as="geometry" />
        </mxCell>
        <mxCell id="O9iiYRhufzulxAbbuQm4-309" value="30" style="whiteSpace=wrap;html=1;aspect=fixed;fontSize=5;fillColor=#FFFFFF;" vertex="1" parent="1">
          <mxGeometry x="698" y="303" width="10" height="10" as="geometry" />
        </mxCell>
        <mxCell id="O9iiYRhufzulxAbbuQm4-310" value="50" style="whiteSpace=wrap;html=1;aspect=fixed;fontSize=5;fillColor=#FFFFFF;" vertex="1" parent="1">
          <mxGeometry x="698" y="313" width="10" height="10" as="geometry" />
        </mxCell>
        <mxCell id="O9iiYRhufzulxAbbuQm4-339" value="" style="endArrow=none;html=1;rounded=0;dashed=1;dashPattern=1 1;" edge="1" parent="1">
          <mxGeometry width="50" height="50" relative="1" as="geometry">
            <mxPoint x="848.5" y="335" as="sourcePoint" />
            <mxPoint x="838.5" y="335" as="targetPoint" />
          </mxGeometry>
        </mxCell>
        <mxCell id="O9iiYRhufzulxAbbuQm4-340" value="" style="endArrow=none;html=1;rounded=0;dashed=1;dashPattern=1 1;" edge="1" parent="1">
          <mxGeometry width="50" height="50" relative="1" as="geometry">
            <mxPoint x="838.5" y="345" as="sourcePoint" />
            <mxPoint x="848.5" y="335" as="targetPoint" />
          </mxGeometry>
        </mxCell>
        <mxCell id="O9iiYRhufzulxAbbuQm4-341" value="" style="endArrow=none;html=1;rounded=0;dashed=1;dashPattern=1 1;" edge="1" parent="1">
          <mxGeometry width="50" height="50" relative="1" as="geometry">
            <mxPoint x="838.5" y="355.25" as="sourcePoint" />
            <mxPoint x="838.5" y="345.25" as="targetPoint" />
          </mxGeometry>
        </mxCell>
        <mxCell id="O9iiYRhufzulxAbbuQm4-343" value="" style="endArrow=none;html=1;rounded=0;dashed=1;dashPattern=1 1;" edge="1" parent="1">
          <mxGeometry width="50" height="50" relative="1" as="geometry">
            <mxPoint x="838.5" y="355.25" as="sourcePoint" />
            <mxPoint x="858.5" y="335" as="targetPoint" />
          </mxGeometry>
        </mxCell>
        <mxCell id="O9iiYRhufzulxAbbuQm4-345" value="" style="endArrow=none;html=1;rounded=0;dashed=1;dashPattern=1 1;" edge="1" parent="1">
          <mxGeometry width="50" height="50" relative="1" as="geometry">
            <mxPoint x="858.5" y="335.25" as="sourcePoint" />
            <mxPoint x="868.5" y="335.25" as="targetPoint" />
          </mxGeometry>
        </mxCell>
        <mxCell id="O9iiYRhufzulxAbbuQm4-346" value="" style="endArrow=none;html=1;rounded=0;dashed=1;dashPattern=1 1;" edge="1" parent="1">
          <mxGeometry width="50" height="50" relative="1" as="geometry">
            <mxPoint x="838.5" y="365" as="sourcePoint" />
            <mxPoint x="868.5" y="335.25" as="targetPoint" />
            <Array as="points">
              <mxPoint x="868.5" y="335" />
            </Array>
          </mxGeometry>
        </mxCell>
        <mxCell id="O9iiYRhufzulxAbbuQm4-352" value="" style="endArrow=none;html=1;rounded=0;dashed=1;dashPattern=1 1;" edge="1" parent="1">
          <mxGeometry width="50" height="50" relative="1" as="geometry">
            <mxPoint x="838.5" y="375" as="sourcePoint" />
            <mxPoint x="838.5" y="365" as="targetPoint" />
          </mxGeometry>
        </mxCell>
        <mxCell id="O9iiYRhufzulxAbbuQm4-353" value="" style="endArrow=classicThin;html=1;rounded=0;dashed=1;dashPattern=1 1;endFill=1;endSize=2;" edge="1" parent="1">
          <mxGeometry width="50" height="50" relative="1" as="geometry">
            <mxPoint x="838.5" y="375" as="sourcePoint" />
            <mxPoint x="878.5" y="335" as="targetPoint" />
            <Array as="points">
              <mxPoint x="868.5" y="345" />
              <mxPoint x="878.5" y="335" />
            </Array>
          </mxGeometry>
        </mxCell>
        <mxCell id="O9iiYRhufzulxAbbuQm4-356" value="&lt;div&gt;&lt;span style=&quot;background-color: initial; font-size: 7px;&quot;&gt;Info&amp;nbsp;&lt;/span&gt;&lt;span style=&quot;font-size: 7px; background-color: initial;&quot;&gt;Loss&lt;/span&gt;&lt;/div&gt;" style="rounded=1;whiteSpace=wrap;html=1;strokeWidth=0.5;spacing=2;fillColor=#e1d5e7;strokeColor=#9673a6;fontFamily=Georgia;" vertex="1" parent="1">
          <mxGeometry x="733" y="323" width="42" height="21.5" as="geometry" />
        </mxCell>
      </root>
    </mxGraphModel>
  </diagram>
</mxfile>
